<?xml version="1.0" standalone="no"?>
<!DOCTYPE svg PUBLIC "-//W3C//DTD SVG 20010904//EN"
 "http://www.w3.org/TR/2001/REC-SVG-20010904/DTD/svg10.dtd">
<svg version="1.0" xmlns="http://www.w3.org/2000/svg"
 width="512.000000pt" height="512.000000pt" viewBox="0 0 512.000000 512.000000"
 preserveAspectRatio="xMidYMid meet">
<metadata>
Created by potrace 1.11, written by Peter Selinger 2001-2013
</metadata>
<g transform="translate(0.000000,512.000000) scale(0.100000,-0.100000)"
fill="#000000" stroke="none">
<path d="M1960 4857 c-81 -41 -180 -333 -264 -777 -9 -47 -18 -96 -21 -110 -3
-14 -8 -38 -10 -55 -3 -16 -10 -56 -16 -88 -10 -60 -15 -90 -25 -164 -5 -35
-3 -43 10 -44 9 -1 19 -2 24 -3 4 -1 30 -6 57 -11 28 -5 52 -9 55 -10 15 -3
110 -18 139 -21 19 -2 48 -5 65 -8 17 -3 56 -7 86 -11 30 -3 71 -8 90 -11 65
-9 564 -12 640 -3 41 4 93 10 115 13 115 14 325 63 325 77 0 16 -111 565 -126
624 -17 64 -22 85 -30 125 -13 63 -81 293 -100 337 -8 17 -14 34 -14 37 0 21
-56 90 -83 101 -52 22 -82 5 -222 -121 -109 -98 -104 -94 -168 -129 -78 -44
-181 -14 -264 77 -27 29 -70 74 -94 101 -54 59 -132 92 -169 74z"/>
<path d="M1536 3262 c-2 -1 -16 -5 -32 -8 -16 -3 -54 -11 -84 -19 -30 -8 -68
-16 -85 -19 -16 -2 -30 -5 -30 -6 0 -1 -7 -3 -15 -5 -218 -46 -556 -154 -698
-221 -141 -68 -177 -118 -125 -176 35 -39 208 -115 348 -153 61 -17 286 -69
340 -79 105 -20 276 -48 319 -53 28 -3 54 -7 57 -9 3 -2 34 -6 68 -9 34 -3 80
-8 104 -10 291 -31 464 -40 757 -39 209 0 422 8 535 19 17 1 66 5 110 9 75 6
100 9 185 20 19 3 58 8 86 11 28 3 60 7 71 9 11 3 44 7 73 11 29 4 62 9 74 11
12 2 73 13 136 25 335 61 621 154 712 232 78 68 28 125 -194 221 -105 46 -404
131 -706 201 l-203 47 -111 -37 c-61 -20 -122 -35 -134 -32 -13 2 -21 1 -19
-3 5 -7 -72 -21 -255 -45 -171 -23 -612 -23 -725 0 -11 2 -46 7 -78 10 -124
13 -375 73 -403 96 -10 9 -70 10 -78 1z"/>
<path d="M958 2378 c-110 -95 -198 -171 -212 -183 -6 -6 -38 -33 -71 -60 -32
-28 -66 -57 -75 -65 -8 -8 -38 -33 -65 -55 -28 -22 -54 -45 -60 -52 -5 -7 -27
-26 -49 -42 -21 -17 -35 -32 -30 -32 5 -1 27 -2 49 -4 208 -12 581 -96 982
-221 l81 -25 -41 -38 c-23 -20 -112 -97 -197 -171 -85 -73 -156 -136 -158
-140 -2 -5 12 -11 30 -15 35 -8 187 -64 303 -113 213 -90 666 -313 658 -325
-3 -6 -1 -7 5 -3 6 4 68 -23 138 -59 129 -67 142 -69 145 -25 1 21 3 30 37
150 17 58 32 114 34 125 3 15 -20 39 -97 99 -194 154 -461 439 -603 646 -28
41 -55 80 -59 85 -58 73 -253 435 -269 499 -9 36 -19 41 -104 51 -47 5 -239
34 -267 40 -16 4 -43 -14 -105 -67z"/>
<path d="M3800 2433 c-47 -7 -109 -15 -139 -19 -30 -3 -62 -8 -70 -9 -9 -2
-27 -4 -42 -4 -24 -1 -25 -4 -24 -53 2 -64 -18 -189 -45 -278 -20 -63 -22 -67
-118 -142 -193 -152 -341 -298 -525 -517 -36 -44 -161 -225 -184 -266 -58
-108 -76 -145 -102 -205 -27 -61 -43 -102 -42 -107 0 -2 -7 -19 -16 -40 -8
-21 -17 -48 -19 -61 -3 -13 -11 -49 -19 -80 -16 -60 -27 -148 -29 -227 -1 -27
-5 -55 -9 -62 -4 -6 -3 -14 3 -18 5 -3 10 -22 10 -41 0 -19 5 -34 10 -34 6 0
10 4 10 8 0 29 176 287 247 362 18 19 33 39 33 43 0 5 5 5 12 1 6 -4 8 -3 5 3
-8 13 57 76 67 66 4 -5 6 -3 4 2 -4 14 31 48 130 128 160 129 313 222 507 306
28 12 59 26 70 32 50 23 300 99 380 115 l88 17 -84 40 c-46 21 -151 71 -234
109 -82 39 -153 73 -157 77 -7 6 51 39 132 74 45 20 319 105 360 112 18 3 69
14 115 25 46 11 98 22 117 25 18 3 40 8 48 10 8 2 31 7 50 10 43 7 98 16 125
21 48 9 153 26 188 30 90 11 89 13 -59 117 -77 53 -164 114 -194 135 -30 21
-86 60 -125 87 -38 26 -127 88 -197 137 -141 98 -124 94 -278 71z"/>
<path d="M1608 2358 c-12 -125 65 -260 175 -307 106 -46 234 -60 318 -35 100
30 152 71 229 182 53 78 211 67 268 -18 73 -112 179 -173 296 -174 100 0 159
11 230 43 123 57 183 152 182 286 -1 51 -6 55 -51 41 -15 -4 -116 -25 -150
-31 -90 -15 -241 -19 -615 -19 -536 0 -693 11 -862 60 -13 4 -17 -3 -20 -28z"/>
</g>
</svg>
